<?xml version="1.0" standalone="no"?>
<svg id="top_level" xmlns="http://www.w3.org/2000/svg" width="1099" height="608" xmlns:xlink="http://www.w3.org/1999/xlink" viewBox="0 0 1099 608">
  <defs>
    <style type="text/css">
      svg {
        font-family: Arial, sans-serif;
      }

      rect {
        shape-rendering: crispEdges;
      }

      .title {
        fill: #444;
        font-size: 24px;
      }

      .bracket-line {
        fill: none;
        stroke: #666;
        stroke-width: 2px;
      }

      .match--base-background {
        fill: #eee;
      }

      .match--wrapper-background {
        fill-opacity: 0;
      }

      .match--identifier {
        fill: #777;
        font-size: 10px;
      }

      .match--seed {
        fill: #222;
        font-size: 10px;
        letter-spacing: -1px;
      }

      .match--seed-background {
        fill: #d3d3d3;
      }

      .match--scores-background {
        fill: #d3d3d3;
      }

      .match--winner-background {
        fill: #F68800;
      }

      .match--player-name {
        fill: #222;
        font-size: 12px;
      }

      .match--player-name.-placeholder {
        font-style: italic;
        font-size: 11px;
        fill: #bbb;
      }

      .match--player-score {
        fill: #111;
        font-size: 12px;
      }

      .match--player-background {
        fill: #eee;
      }

      .match--player-divider {
        stroke: #fff;
        stroke-width: 1px;
      }

      .round-label {
        cursor: pointer;
      }

      .round-label rect {
        fill: #ddd;
      }

      .round-label text {
        fill: #444;
        font-size: 12px;
      }

      text.round-label--best-of {
        fill: #369;
        font-weight: bold;
      }

      .round-header-label text {
        fill: #444;
        font-size: 16px;
        font-weight: bold;
      }

      .round-header-label text.round-header-label--best-of {
        fill: #369;
        font-size: 12px;
      }

      @media only print {
        svg#top_level {
          width: 100%;
          height: 100%;
        }
      }
    </style>
  </defs>

    <svg
     xmlns:dc="http://purl.org/dc/elements/1.1/"
     xmlns:cc="http://creativecommons.org/ns#"
     xmlns:rdf="http://www.w3.org/1999/02/22-rdf-syntax-ns#"
     xmlns:svg="http://www.w3.org/2000/svg"
     xmlns="http://www.w3.org/2000/svg"
     style="overflow:visible; shape-rendering:auto;"
     xml:space="preserve"
     enable-background="new 0 0 842 330.625"
     overflow="visible"
     viewBox="0 0 467.41202 82.080627"
     height="54"
     width="300"
     id="Layer_1"
     version="1.1"><metadata
       id="metadata3278"><rdf:RDF><cc:Work
           rdf:about=""><dc:format>image/svg+xml</dc:format><dc:type
             rdf:resource="http://purl.org/dc/dcmitype/StillImage" /><dc:title></dc:title></cc:Work></rdf:RDF></metadata><defs
       id="defs3276" /><g
       transform="translate(-216.82224,0)"
       id="g3250"><g
         id="g3254"><path
           style="fill:#ff7324;fill-opacity:1;fill-rule:evenodd"
           id="path3256"
           d="m 291.496,17.625 c -21.852,5.605 -41.235,15.521 -56.801,32.248 3.926,4.251 8.416,5.555 13.744,6.55 11.443,-11.805 25.47,-19.303 41.265,-23.855 3.881,-1.12 1.923,-11.453 1.792,-14.943 z"
           clip-rule="evenodd" /><path
           style="fill:#ff7324;fill-opacity:1;fill-rule:evenodd"
           id="path3258"
           d="m 233.925,18.311 c -16.354,9.442 -21.958,30.361 -12.517,46.714 4.875,8.443 12.81,14.021 21.594,16.141 26.505,6.385 48.655,-21.885 47.718,-46.69 -15.059,4.472 -28.147,11.792 -38.855,22.549 31.46,5.422 3.104,27.607 -17.051,13.984 -14.457,-9.772 -16.144,-28.107 -7.929,-41.825 5.047,-8.429 12.112,-11.646 20.633,-15.281 -4.652,0.476 -9.282,1.918 -13.593,4.408 z"
           clip-rule="evenodd" /><path
           style="fill:#ff7324;fill-opacity:1;fill-rule:evenodd"
           id="path3260"
           d="m 291.387,0 c -29.036,8.964 -60.413,17.076 -62.222,35.94 -0.402,2.803 0.189,5.862 2.14,9.24 0.625,1.081 1.263,2.048 1.917,2.919 14.912,-16.892 33.967,-26.92 56.605,-32.691 3.915,-0.998 1.692,-11.919 1.56,-15.408 z"
           clip-rule="evenodd" /></g></g><g
       id="text2995"
       style="font-style:normal;font-weight:normal;font-size:40px;line-height:125%;font-family:Sans;letter-spacing:0px;word-spacing:0px;fill:#000000;fill-opacity:1;stroke:none"><path
         id="path3740"
         style="font-style:normal;font-variant:normal;font-weight:bold;font-stretch:normal;font-size:64px;line-height:125%;font-family:FuturaRO;-inkscape-font-specification:'FuturaRO Bold';text-align:start;writing-mode:lr-tb;text-anchor:start"
         d="m 133.56,20.400628 0,11.264 q -4.16,-5.12 -10.624,-5.12 -6.528,0 -10.56,5.184 -3.648,4.736 -3.648,11.456 0,6.528 3.776,11.2 4.032,5.056 10.368,5.056 6.272,0 10.688,-5.12 l 0,11.2 q -6.144,2.88 -10.944,2.88 -10.176,0 -16.96,-7.488 -6.656,-7.296 -6.656,-17.536 0,-10.624 6.528,-18.048 6.784,-7.744 17.28,-7.744 5.504,0 10.752,2.816 z" /><path
         id="path3742"
         style="font-style:normal;font-variant:normal;font-weight:bold;font-stretch:normal;font-size:64px;line-height:125%;font-family:FuturaRO;-inkscape-font-specification:'FuturaRO Bold';text-align:start;writing-mode:lr-tb;text-anchor:start"
         d="m 149.212,37.872628 17.408,0 0,-19.008 9.408,0 0,48.256 -9.408,0 0,-21.568 -17.408,0 0,21.568 -9.408,0 0,-48.256 9.408,0 0,19.008 z" /><path
         id="path3744"
         style="font-style:normal;font-variant:normal;font-weight:bold;font-stretch:normal;font-size:64px;line-height:125%;font-family:FuturaRO;-inkscape-font-specification:'FuturaRO Bold';text-align:start;writing-mode:lr-tb;text-anchor:start"
         d="m 209.553,56.944628 -16.768,0 -3.968,10.176 -9.92,0 18.816,-49.536 7.296,0 18.304,49.536 -10.048,0 -3.712,-10.176 z m -2.624,-7.68 -6.016,-17.536 -5.44,17.536 11.456,0 z" /><path
         id="path3746"
         style="font-style:normal;font-variant:normal;font-weight:bold;font-stretch:normal;font-size:64px;line-height:125%;font-family:FuturaRO;-inkscape-font-specification:'FuturaRO Bold';text-align:start;writing-mode:lr-tb;text-anchor:start"
         d="m 235.587,18.864628 0,40.064 13.312,0 0,8.192 -22.72,0 0,-48.256 9.408,0 z" /><path
         id="path3748"
         style="font-style:normal;font-variant:normal;font-weight:bold;font-stretch:normal;font-size:64px;line-height:125%;font-family:FuturaRO;-inkscape-font-specification:'FuturaRO Bold';text-align:start;writing-mode:lr-tb;text-anchor:start"
         d="m 261.337,18.864628 0,40.064 13.312,0 0,8.192 -22.72,0 0,-48.256 9.408,0 z" /><path
         id="path3750"
         style="font-style:normal;font-variant:normal;font-weight:bold;font-stretch:normal;font-size:64px;line-height:125%;font-family:FuturaRO;-inkscape-font-specification:'FuturaRO Bold';text-align:start;writing-mode:lr-tb;text-anchor:start"
         d="m 299.247,68.400628 q -10.496,0 -17.28,-7.552 -6.592,-7.36 -6.592,-17.92 0,-10.496 6.656,-17.792 6.848,-7.552 17.216,-7.552 10.368,0 17.216,7.552 6.656,7.296 6.656,17.792 0,10.56 -6.592,17.92 -6.784,7.552 -17.28,7.552 z m 0,-41.536 q -6.08,0 -10.24,4.864 -3.904,4.608 -3.904,10.816 0,5.952 4.032,11.072 4.352,5.504 10.112,5.504 5.76,0 10.112,-5.504 4.032,-5.12 4.032,-11.072 0,-6.144 -3.968,-10.816 -4.16,-4.864 -10.176,-4.864 z" /><path
         id="path3752"
         style="font-style:normal;font-variant:normal;font-weight:bold;font-stretch:normal;font-size:64px;line-height:125%;font-family:FuturaRO;-inkscape-font-specification:'FuturaRO Bold';text-align:start;writing-mode:lr-tb;text-anchor:start"
         d="m 327.679,67.120628 0,-49.536 6.784,0 25.408,33.728 0.128,-32.448 9.408,0 0,49.216 -6.784,0 -25.408,-33.728 -0.128,32.768 -9.408,0 z" /><path
         id="path3754"
         style="font-style:normal;font-variant:normal;font-weight:bold;font-stretch:normal;font-size:64px;line-height:125%;font-family:FuturaRO;-inkscape-font-specification:'FuturaRO Bold';text-align:start;writing-mode:lr-tb;text-anchor:start"
         d="m 398.128,41.456628 20.8,0 0,1.216 q 0,11.072 -5.312,18.048 -5.888,7.68 -16.64,7.68 -10.304,0 -16.768,-7.552 -6.208,-7.232 -6.208,-17.664 0,-10.752 6.336,-17.984 6.592,-7.616 17.216,-7.616 6.144,0 11.2,3.072 5.12,3.008 7.872,8.448 l -8.32,4.48 q -1.472,-3.392 -4.48,-5.504 -2.944,-2.176 -6.528,-2.176 -6.4,0 -10.24,5.632 -3.328,4.992 -3.328,11.648 0,6.72 3.392,11.52 3.84,5.376 10.24,5.376 4.416,0 7.68,-3.264 3.328,-3.264 3.328,-7.68 l -10.24,0 0,-7.68 z" /><path
         id="path3756"
         style="font-style:normal;font-variant:normal;font-weight:bold;font-stretch:normal;font-size:64px;line-height:125%;font-family:FuturaRO;-inkscape-font-specification:'FuturaRO Bold';text-align:start;writing-mode:lr-tb;text-anchor:start"
         d="m 448.514,27.056628 -15.552,0 0,10.624 14.976,0 0,8.192 -14.976,0 0,13.056 15.552,0 0,8.192 -24.96,0 0,-48.256 24.96,0 0,8.192 z" /><path
         id="path3758"
         style="font-style:normal;font-variant:normal;font-weight:bold;font-stretch:normal;font-size:64px;line-height:125%;font-family:FuturaRO;-inkscape-font-specification:'FuturaRO Bold';text-align:start;writing-mode:lr-tb;text-anchor:start"
         d="m 461.716,57.008628 q 2.432,0 4.032,1.6 1.664,1.6 1.664,4.032 0,2.368 -1.664,4.096 -1.664,1.664 -4.032,1.664 -2.432,0 -4.096,-1.664 -1.6,-1.664 -1.6,-4.096 0,-2.368 1.664,-3.968 1.664,-1.664 4.032,-1.664 z m -4.544,-3.776 0,-34.368 9.088,0 0,34.368 -9.088,0 z" /></g>
    </svg>
  <text y="85" class="title">QMQ#3 - Melee - Singles</text>
  <svg y="110">
    <svg class="tournament-bracket -for-print" width="1099" height="448" x="0" y="0"><g><g class="rounds" transform="translate(0,0)"><svg class="round" x="0"><g class="round-label" data-toggle="" data-href="/es/tournaments/2712590/rounds/new_or_edit?number=1&amp;title=Ronda+1"><rect width="222" height="25"></rect><text x="111.5" y="17" width="222" height="15" text-anchor="middle">Ronda 1</text></g></svg><svg class="round" x="223"><g class="round-label" data-toggle="" data-href="/es/tournaments/2712590/rounds/new_or_edit?number=2&amp;title=Ronda+2"><rect width="222" height="25"></rect><text x="111.5" y="17" width="222" height="15" text-anchor="middle">Ronda 2</text></g></svg><svg class="round" x="446"><g class="round-label" data-toggle="" data-href="/es/tournaments/2712590/rounds/new_or_edit?number=3&amp;title=Semifinales"><rect width="222" height="25"></rect><text x="111.5" y="17" width="222" height="15" text-anchor="middle">Semifinales</text></g></svg><svg class="round" x="669"><g class="round-label" data-toggle="" data-href="/es/tournaments/2712590/rounds/new_or_edit?number=4&amp;title=Finales"><rect width="222" height="25"></rect><text x="111.5" y="17" width="222" height="15" text-anchor="middle">Finales</text></g></svg></g><svg x="446" y="340"><path d="M 207 26 L 215 26 L 215 1 L 223 1" class="bracket-line" data-line-length="41"></path></svg><svg x="223" y="340"><path d="M 207 1 L 215 1 L 215 27" class="bracket-line" data-line-length="41"></path></svg><svg x="223" y="367"><path d="M 207 26 L 215 26 L 215 1 L 223 1" class="bracket-line" data-line-length="41"></path></svg><svg x="0" y="394"><path d="M 207 26 L 215 26 L 215 1 L 223 1" class="bracket-line" data-line-length="41"></path></svg><svg x="0" y="340"><path d="M 207 26 L 215 26 L 215 1 L 223 1" class="bracket-line" data-line-length="41"></path></svg><svg x="669" y="170"><path d="M 207 1 L 223 1" class="bracket-line" data-line-length="14"></path></svg><svg x="446" y="143"><path d="M 207 1 L 215 1 L 215 26.000000000000014 L 223 26.000000000000014" class="bracket-line" data-line-length="41.000000000000014"></path></svg><svg x="223" y="89"><path d="M 207 1 L 215 1 L 215 53.999999999999986" class="bracket-line" data-line-length="67.99999999999999"></path></svg><svg x="223" y="143"><path d="M 207 53.000000000000014 L 215 53.000000000000014 L 215 1 L 223 1" class="bracket-line" data-line-length="68.00000000000001"></path></svg><svg x="0" y="170"><path d="M 207 1 L 215 1 L 215 27" class="bracket-line" data-line-length="41"></path></svg><svg x="0" y="197"><path d="M 207 26 L 215 26 L 215 1 L 223 1" class="bracket-line" data-line-length="41"></path></svg><svg x="0" y="62"><path d="M 207 1 L 215 1 L 215 27" class="bracket-line" data-line-length="41"></path></svg><svg x="0" y="89"><path d="M 207 26 L 215 26 L 215 1 L 223 1" class="bracket-line" data-line-length="41"></path></svg><svg x="669" y="313" class="match -complete " data-identifier="13" data-match-id="66303811"><text x="11" y="31" width="24" height="10" text-anchor="middle" class="match--identifier">13</text><rect x="24" y="3" width="183" height="49" rx="3" ry="3" class="match--wrapper-background "></rect><rect x="26" y="5" width="179" height="45" rx="3" ry="3" class="match--base-background"></rect><rect x="170" y="5" width="35" height="45" rx="3" ry="3" class="match--scores-background"></rect><rect x="170" y="5" width="35" height="22" rx="3" ry="3" class="match--winner-background"></rect><rect x="170" y="22" width="35" height="5" class="match--winner-background"></rect><text x="190" y="20" width="21" height="12" text-anchor="middle" class="match--player-score">3</text><text x="190" y="43" width="21" height="12" text-anchor="middle" class="match--player-score">2</text><g class="match--player" data-participant-id="42904327"><title>Dark_Crono</title><defs><clipPath id="clipPath2048154"><rect x="29" y="5" width="143" height="22"></rect></clipPath></defs><rect x="29" y="5" width="147" height="22" class="match--player-background"></rect><text clip-path="url(#clipPath2048154)" x="34" y="20" width="147" height="12" class="match--player-name ">Dark_Crono</text></g><g class="match--player" data-participant-id="42904335"><title>Lucid</title><defs><clipPath id="clipPath5455407"><rect x="29" y="28" width="143" height="22"></rect></clipPath></defs><rect x="29" y="28" width="147" height="22" class="match--player-background"></rect><text clip-path="url(#clipPath5455407)" x="34" y="43" width="147" height="12" class="match--player-name ">Lucid</text></g><line x1="26" y1="27.5" x2="205" y2="27.5" class="match--player-divider"></line></svg><svg x="446" y="340" class="match -complete " data-identifier="11" data-match-id="66303810"><text x="11" y="31" width="24" height="10" text-anchor="middle" class="match--identifier">11</text><rect x="24" y="3" width="183" height="49" rx="3" ry="3" class="match--wrapper-background "></rect><rect x="26" y="5" width="179" height="45" rx="3" ry="3" class="match--base-background"></rect><rect x="170" y="5" width="35" height="45" rx="3" ry="3" class="match--scores-background"></rect><rect x="170" y="5" width="35" height="22" rx="3" ry="3" class="match--winner-background"></rect><rect x="170" y="22" width="35" height="5" class="match--winner-background"></rect><text x="190" y="20" width="21" height="12" text-anchor="middle" class="match--player-score">3</text><text x="190" y="43" width="21" height="12" text-anchor="middle" class="match--player-score">0</text><g class="match--player" data-participant-id="42904335"><title>Lucid</title><defs><clipPath id="clipPath3704803"><rect x="29" y="5" width="143" height="22"></rect></clipPath></defs><rect x="29" y="5" width="147" height="22" class="match--player-background"></rect><text clip-path="url(#clipPath3704803)" x="34" y="20" width="147" height="12" class="match--player-name ">Lucid</text></g><g class="match--player" data-participant-id="42904340"><title>Leeh</title><defs><clipPath id="clipPath4905392"><rect x="29" y="28" width="143" height="22"></rect></clipPath></defs><rect x="29" y="28" width="147" height="22" class="match--player-background"></rect><text clip-path="url(#clipPath4905392)" x="34" y="43" width="147" height="12" class="match--player-name ">Leeh</text></g><line x1="26" y1="27.5" x2="205" y2="27.5" class="match--player-divider"></line></svg><svg x="223" y="367" class="match -complete " data-identifier="9" data-match-id="66303809"><text x="11" y="31" width="24" height="10" text-anchor="middle" class="match--identifier">9</text><rect x="24" y="3" width="183" height="49" rx="3" ry="3" class="match--wrapper-background "></rect><rect x="26" y="5" width="179" height="45" rx="3" ry="3" class="match--base-background"></rect><rect x="170" y="5" width="35" height="45" rx="3" ry="3" class="match--scores-background"></rect><rect x="170" y="28" width="35" height="22" rx="3" ry="3" class="match--winner-background"></rect><rect x="170" y="28" width="35" height="5" class="match--winner-background"></rect><text x="190" y="20" width="21" height="12" text-anchor="middle" class="match--player-score">-1</text><text x="190" y="43" width="21" height="12" text-anchor="middle" class="match--player-score">0</text><g class="match--player" data-participant-id="42904339"><title>6sense</title><defs><clipPath id="clipPath2037147"><rect x="29" y="5" width="143" height="22"></rect></clipPath></defs><rect x="29" y="5" width="147" height="22" class="match--player-background"></rect><text clip-path="url(#clipPath2037147)" x="34" y="20" width="147" height="12" class="match--player-name ">6sense</text></g><g class="match--player" data-participant-id="42904340"><title>Leeh</title><defs><clipPath id="clipPath6684458"><rect x="29" y="28" width="143" height="22"></rect></clipPath></defs><rect x="29" y="28" width="147" height="22" class="match--player-background"></rect><text clip-path="url(#clipPath6684458)" x="34" y="43" width="147" height="12" class="match--player-name ">Leeh</text></g><line x1="26" y1="27.5" x2="205" y2="27.5" class="match--player-divider"></line></svg><svg x="223" y="313" class="match -complete " data-identifier="10" data-match-id="66303808"><text x="11" y="31" width="24" height="10" text-anchor="middle" class="match--identifier">10</text><rect x="24" y="3" width="183" height="49" rx="3" ry="3" class="match--wrapper-background "></rect><rect x="26" y="5" width="179" height="45" rx="3" ry="3" class="match--base-background"></rect><rect x="170" y="5" width="35" height="45" rx="3" ry="3" class="match--scores-background"></rect><rect x="170" y="28" width="35" height="22" rx="3" ry="3" class="match--winner-background"></rect><rect x="170" y="28" width="35" height="5" class="match--winner-background"></rect><text x="190" y="20" width="21" height="12" text-anchor="middle" class="match--player-score">0</text><text x="190" y="43" width="21" height="12" text-anchor="middle" class="match--player-score">2</text><g class="match--player" data-participant-id="42904329"><title>K3</title><defs><clipPath id="clipPath8539376"><rect x="29" y="5" width="143" height="22"></rect></clipPath></defs><rect x="29" y="5" width="147" height="22" class="match--player-background"></rect><text clip-path="url(#clipPath8539376)" x="34" y="20" width="147" height="12" class="match--player-name ">K3</text></g><g class="match--player" data-participant-id="42904335"><title>Lucid</title><defs><clipPath id="clipPath2797759"><rect x="29" y="28" width="143" height="22"></rect></clipPath></defs><rect x="29" y="28" width="147" height="22" class="match--player-background"></rect><text clip-path="url(#clipPath2797759)" x="34" y="43" width="147" height="12" class="match--player-name ">Lucid</text></g><line x1="26" y1="27.5" x2="205" y2="27.5" class="match--player-divider"></line></svg><svg x="0" y="394" class="match -complete " data-identifier="6" data-match-id="66303807"><text x="11" y="31" width="24" height="10" text-anchor="middle" class="match--identifier">6</text><rect x="24" y="3" width="183" height="49" rx="3" ry="3" class="match--wrapper-background "></rect><rect x="26" y="5" width="179" height="45" rx="3" ry="3" class="match--base-background"></rect><rect x="170" y="5" width="35" height="45" rx="3" ry="3" class="match--scores-background"></rect><rect x="170" y="28" width="35" height="22" rx="3" ry="3" class="match--winner-background"></rect><rect x="170" y="28" width="35" height="5" class="match--winner-background"></rect><text x="190" y="20" width="21" height="12" text-anchor="middle" class="match--player-score">1</text><text x="190" y="43" width="21" height="12" text-anchor="middle" class="match--player-score">2</text><g class="match--player" data-participant-id="42904336"><title>Ta1nted</title><defs><clipPath id="clipPath6658214"><rect x="29" y="5" width="143" height="22"></rect></clipPath></defs><rect x="29" y="5" width="147" height="22" class="match--player-background"></rect><text clip-path="url(#clipPath6658214)" x="34" y="20" width="147" height="12" class="match--player-name ">Ta1nted</text></g><g class="match--player" data-participant-id="42904340"><title>Leeh</title><defs><clipPath id="clipPath1506310"><rect x="29" y="28" width="143" height="22"></rect></clipPath></defs><rect x="29" y="28" width="147" height="22" class="match--player-background"></rect><text clip-path="url(#clipPath1506310)" x="34" y="43" width="147" height="12" class="match--player-name ">Leeh</text></g><line x1="26" y1="27.5" x2="205" y2="27.5" class="match--player-divider"></line></svg><svg x="0" y="340" class="match -complete " data-identifier="5" data-match-id="66303806"><text x="11" y="31" width="24" height="10" text-anchor="middle" class="match--identifier">5</text><rect x="24" y="3" width="183" height="49" rx="3" ry="3" class="match--wrapper-background "></rect><rect x="26" y="5" width="179" height="45" rx="3" ry="3" class="match--base-background"></rect><rect x="170" y="5" width="35" height="45" rx="3" ry="3" class="match--scores-background"></rect><rect x="170" y="28" width="35" height="22" rx="3" ry="3" class="match--winner-background"></rect><rect x="170" y="28" width="35" height="5" class="match--winner-background"></rect><text x="190" y="20" width="21" height="12" text-anchor="middle" class="match--player-score">1</text><text x="190" y="43" width="21" height="12" text-anchor="middle" class="match--player-score">2</text><g class="match--player" data-participant-id="42904332"><title>Kaelth</title><defs><clipPath id="clipPath4558979"><rect x="29" y="5" width="143" height="22"></rect></clipPath></defs><rect x="29" y="5" width="147" height="22" class="match--player-background"></rect><text clip-path="url(#clipPath4558979)" x="34" y="20" width="147" height="12" class="match--player-name ">Kaelth</text></g><g class="match--player" data-participant-id="42904335"><title>Lucid</title><defs><clipPath id="clipPath728449"><rect x="29" y="28" width="143" height="22"></rect></clipPath></defs><rect x="29" y="28" width="147" height="22" class="match--player-background"></rect><text clip-path="url(#clipPath728449)" x="34" y="43" width="147" height="12" class="match--player-name ">Lucid</text></g><line x1="26" y1="27.5" x2="205" y2="27.5" class="match--player-divider"></line></svg><svg x="892" y="143" class="match -complete " data-identifier="15" data-match-id="66303813"><text x="11" y="31" width="24" height="10" text-anchor="middle" class="match--identifier">15</text><rect x="24" y="3" width="183" height="49" rx="3" ry="3" class="match--wrapper-background "></rect><rect x="26" y="5" width="179" height="45" rx="3" ry="3" class="match--base-background"></rect><rect x="170" y="5" width="35" height="45" rx="3" ry="3" class="match--scores-background"></rect><rect x="170" y="5" width="35" height="22" rx="3" ry="3" class="match--winner-background"></rect><rect x="170" y="22" width="35" height="5" class="match--winner-background"></rect><text x="190" y="20" width="21" height="12" text-anchor="middle" class="match--player-score">3</text><text x="190" y="43" width="21" height="12" text-anchor="middle" class="match--player-score">2</text><g class="match--player" data-participant-id="42904327"><title>Dark_Crono</title><defs><clipPath id="clipPath8140039"><rect x="29" y="5" width="143" height="22"></rect></clipPath></defs><rect x="29" y="5" width="147" height="22" class="match--player-background"></rect><text clip-path="url(#clipPath8140039)" x="34" y="20" width="147" height="12" class="match--player-name ">Dark_Crono</text></g><g class="match--player" data-participant-id="42904331"><title>Marius</title><defs><clipPath id="clipPath5013820"><rect x="29" y="28" width="143" height="22"></rect></clipPath></defs><rect x="29" y="28" width="147" height="22" class="match--player-background"></rect><text clip-path="url(#clipPath5013820)" x="34" y="43" width="147" height="12" class="match--player-name ">Marius</text></g><line x1="26" y1="27.5" x2="205" y2="27.5" class="match--player-divider"></line></svg><svg x="669" y="143" class="match -complete " data-identifier="14" data-match-id="66303812"><text x="11" y="31" width="24" height="10" text-anchor="middle" class="match--identifier">14</text><rect x="24" y="3" width="183" height="49" rx="3" ry="3" class="match--wrapper-background "></rect><rect x="26" y="5" width="179" height="45" rx="3" ry="3" class="match--base-background"></rect><rect x="170" y="5" width="35" height="45" rx="3" ry="3" class="match--scores-background"></rect><rect x="170" y="28" width="35" height="22" rx="3" ry="3" class="match--winner-background"></rect><rect x="170" y="28" width="35" height="5" class="match--winner-background"></rect><text x="190" y="20" width="21" height="12" text-anchor="middle" class="match--player-score">2</text><text x="190" y="43" width="21" height="12" text-anchor="middle" class="match--player-score">3</text><g class="match--player" data-participant-id="42904331"><title>Marius</title><defs><clipPath id="clipPath9725826"><rect x="29" y="5" width="143" height="22"></rect></clipPath></defs><rect x="29" y="5" width="147" height="22" class="match--player-background"></rect><text clip-path="url(#clipPath9725826)" x="34" y="20" width="147" height="12" class="match--player-name ">Marius</text></g><g class="match--player" data-participant-id="42904327"><title>Dark_Crono</title><defs><clipPath id="clipPath9251312"><rect x="29" y="28" width="143" height="22"></rect></clipPath></defs><rect x="29" y="28" width="147" height="22" class="match--player-background"></rect><text clip-path="url(#clipPath9251312)" x="34" y="43" width="147" height="12" class="match--player-name ">Dark_Crono</text></g><line x1="26" y1="27.5" x2="205" y2="27.5" class="match--player-divider"></line></svg><svg x="446" y="115.99999999999999" class="match -complete " data-identifier="12" data-match-id="66303805"><text x="11" y="31" width="24" height="10" text-anchor="middle" class="match--identifier">12</text><rect x="24" y="3" width="183" height="49" rx="3" ry="3" class="match--wrapper-background "></rect><rect x="26" y="5" width="179" height="45" rx="3" ry="3" class="match--base-background"></rect><rect x="170" y="5" width="35" height="45" rx="3" ry="3" class="match--scores-background"></rect><rect x="170" y="28" width="35" height="22" rx="3" ry="3" class="match--winner-background"></rect><rect x="170" y="28" width="35" height="5" class="match--winner-background"></rect><text x="190" y="20" width="21" height="12" text-anchor="middle" class="match--player-score">0</text><text x="190" y="43" width="21" height="12" text-anchor="middle" class="match--player-score">3</text><g class="match--player" data-participant-id="42904327"><title>Dark_Crono</title><defs><clipPath id="clipPath4960772"><rect x="29" y="5" width="143" height="22"></rect></clipPath></defs><rect x="29" y="5" width="147" height="22" class="match--player-background"></rect><text clip-path="url(#clipPath4960772)" x="34" y="20" width="147" height="12" class="match--player-name ">Dark_Crono</text></g><g class="match--player" data-participant-id="42904331"><title>Marius</title><defs><clipPath id="clipPath2228985"><rect x="29" y="28" width="143" height="22"></rect></clipPath></defs><rect x="29" y="28" width="147" height="22" class="match--player-background"></rect><text clip-path="url(#clipPath2228985)" x="34" y="43" width="147" height="12" class="match--player-name ">Marius</text></g><line x1="26" y1="27.5" x2="205" y2="27.5" class="match--player-divider"></line></svg><svg x="223" y="170" class="match -complete " data-identifier="8" data-match-id="66303804"><text x="11" y="31" width="24" height="10" text-anchor="middle" class="match--identifier">8</text><rect x="24" y="3" width="183" height="49" rx="3" ry="3" class="match--wrapper-background "></rect><rect x="26" y="5" width="179" height="45" rx="3" ry="3" class="match--base-background"></rect><rect x="170" y="5" width="35" height="45" rx="3" ry="3" class="match--scores-background"></rect><rect x="170" y="5" width="35" height="22" rx="3" ry="3" class="match--winner-background"></rect><rect x="170" y="22" width="35" height="5" class="match--winner-background"></rect><text x="190" y="20" width="21" height="12" text-anchor="middle" class="match--player-score">3</text><text x="190" y="43" width="21" height="12" text-anchor="middle" class="match--player-score">0</text><g class="match--player" data-participant-id="42904331"><title>Marius</title><defs><clipPath id="clipPath2212791"><rect x="29" y="5" width="143" height="22"></rect></clipPath></defs><rect x="29" y="5" width="147" height="22" class="match--player-background"></rect><text clip-path="url(#clipPath2212791)" x="34" y="20" width="147" height="12" class="match--player-name ">Marius</text></g><g class="match--player" data-participant-id="42904329"><title>K3</title><defs><clipPath id="clipPath2171552"><rect x="29" y="28" width="143" height="22"></rect></clipPath></defs><rect x="29" y="28" width="147" height="22" class="match--player-background"></rect><text clip-path="url(#clipPath2171552)" x="34" y="43" width="147" height="12" class="match--player-name ">K3</text></g><line x1="26" y1="27.5" x2="205" y2="27.5" class="match--player-divider"></line></svg><svg x="223" y="62" class="match -complete " data-identifier="7" data-match-id="66303803"><text x="11" y="31" width="24" height="10" text-anchor="middle" class="match--identifier">7</text><rect x="24" y="3" width="183" height="49" rx="3" ry="3" class="match--wrapper-background "></rect><rect x="26" y="5" width="179" height="45" rx="3" ry="3" class="match--base-background"></rect><rect x="170" y="5" width="35" height="45" rx="3" ry="3" class="match--scores-background"></rect><rect x="170" y="5" width="35" height="22" rx="3" ry="3" class="match--winner-background"></rect><rect x="170" y="22" width="35" height="5" class="match--winner-background"></rect><text x="190" y="20" width="21" height="12" text-anchor="middle" class="match--player-score">0</text><text x="190" y="43" width="21" height="12" text-anchor="middle" class="match--player-score">-1</text><g class="match--player" data-participant-id="42904327"><title>Dark_Crono</title><defs><clipPath id="clipPath3765976"><rect x="29" y="5" width="143" height="22"></rect></clipPath></defs><rect x="29" y="5" width="147" height="22" class="match--player-background"></rect><text clip-path="url(#clipPath3765976)" x="34" y="20" width="147" height="12" class="match--player-name ">Dark_Crono</text></g><g class="match--player" data-participant-id="42904339"><title>6sense</title><defs><clipPath id="clipPath1135341"><rect x="29" y="28" width="143" height="22"></rect></clipPath></defs><rect x="29" y="28" width="147" height="22" class="match--player-background"></rect><text clip-path="url(#clipPath1135341)" x="34" y="43" width="147" height="12" class="match--player-name ">6sense</text></g><line x1="26" y1="27.5" x2="205" y2="27.5" class="match--player-divider"></line></svg><svg x="0" y="197" class="match -complete " data-identifier="4" data-match-id="66303802"><text x="11" y="31" width="24" height="10" text-anchor="middle" class="match--identifier">4</text><rect x="24" y="3" width="183" height="49" rx="3" ry="3" class="match--wrapper-background "></rect><rect x="26" y="5" width="179" height="45" rx="3" ry="3" class="match--base-background"></rect><rect x="170" y="5" width="35" height="45" rx="3" ry="3" class="match--scores-background"></rect><rect x="170" y="28" width="35" height="22" rx="3" ry="3" class="match--winner-background"></rect><rect x="170" y="28" width="35" height="5" class="match--winner-background"></rect><text x="190" y="20" width="21" height="12" text-anchor="middle" class="match--player-score">1</text><text x="190" y="43" width="21" height="12" text-anchor="middle" class="match--player-score">2</text><g class="match--player" data-participant-id="42904340"><title>Leeh</title><defs><clipPath id="clipPath2059570"><rect x="29" y="5" width="143" height="22"></rect></clipPath></defs><rect x="29" y="5" width="147" height="22" class="match--player-background"></rect><text clip-path="url(#clipPath2059570)" x="34" y="20" width="147" height="12" class="match--player-name ">Leeh</text></g><g class="match--player" data-participant-id="42904329"><title>K3</title><defs><clipPath id="clipPath384153"><rect x="29" y="28" width="143" height="22"></rect></clipPath></defs><rect x="29" y="28" width="147" height="22" class="match--player-background"></rect><text clip-path="url(#clipPath384153)" x="34" y="43" width="147" height="12" class="match--player-name ">K3</text></g><line x1="26" y1="27.5" x2="205" y2="27.5" class="match--player-divider"></line></svg><svg x="0" y="143" class="match -complete " data-identifier="3" data-match-id="66303801"><text x="11" y="31" width="24" height="10" text-anchor="middle" class="match--identifier">3</text><rect x="24" y="3" width="183" height="49" rx="3" ry="3" class="match--wrapper-background "></rect><rect x="26" y="5" width="179" height="45" rx="3" ry="3" class="match--base-background"></rect><rect x="170" y="5" width="35" height="45" rx="3" ry="3" class="match--scores-background"></rect><rect x="170" y="5" width="35" height="22" rx="3" ry="3" class="match--winner-background"></rect><rect x="170" y="22" width="35" height="5" class="match--winner-background"></rect><text x="190" y="20" width="21" height="12" text-anchor="middle" class="match--player-score">2</text><text x="190" y="43" width="21" height="12" text-anchor="middle" class="match--player-score">0</text><g class="match--player" data-participant-id="42904331"><title>Marius</title><defs><clipPath id="clipPath206164"><rect x="29" y="5" width="143" height="22"></rect></clipPath></defs><rect x="29" y="5" width="147" height="22" class="match--player-background"></rect><text clip-path="url(#clipPath206164)" x="34" y="20" width="147" height="12" class="match--player-name ">Marius</text></g><g class="match--player" data-participant-id="42904336"><title>Ta1nted</title><defs><clipPath id="clipPath1441223"><rect x="29" y="28" width="143" height="22"></rect></clipPath></defs><rect x="29" y="28" width="147" height="22" class="match--player-background"></rect><text clip-path="url(#clipPath1441223)" x="34" y="43" width="147" height="12" class="match--player-name ">Ta1nted</text></g><line x1="26" y1="27.5" x2="205" y2="27.5" class="match--player-divider"></line></svg><svg x="0" y="89" class="match -complete " data-identifier="2" data-match-id="66303800"><text x="11" y="31" width="24" height="10" text-anchor="middle" class="match--identifier">2</text><rect x="24" y="3" width="183" height="49" rx="3" ry="3" class="match--wrapper-background "></rect><rect x="26" y="5" width="179" height="45" rx="3" ry="3" class="match--base-background"></rect><rect x="170" y="5" width="35" height="45" rx="3" ry="3" class="match--scores-background"></rect><rect x="170" y="28" width="35" height="22" rx="3" ry="3" class="match--winner-background"></rect><rect x="170" y="28" width="35" height="5" class="match--winner-background"></rect><text x="190" y="20" width="21" height="12" text-anchor="middle" class="match--player-score">1</text><text x="190" y="43" width="21" height="12" text-anchor="middle" class="match--player-score">2</text><g class="match--player" data-participant-id="42904335"><title>Lucid</title><defs><clipPath id="clipPath6605899"><rect x="29" y="5" width="143" height="22"></rect></clipPath></defs><rect x="29" y="5" width="147" height="22" class="match--player-background"></rect><text clip-path="url(#clipPath6605899)" x="34" y="20" width="147" height="12" class="match--player-name ">Lucid</text></g><g class="match--player" data-participant-id="42904339"><title>6sense</title><defs><clipPath id="clipPath8247756"><rect x="29" y="28" width="143" height="22"></rect></clipPath></defs><rect x="29" y="28" width="147" height="22" class="match--player-background"></rect><text clip-path="url(#clipPath8247756)" x="34" y="43" width="147" height="12" class="match--player-name ">6sense</text></g><line x1="26" y1="27.5" x2="205" y2="27.5" class="match--player-divider"></line></svg><svg x="0" y="35" class="match -complete " data-identifier="1" data-match-id="66303799"><text x="11" y="31" width="24" height="10" text-anchor="middle" class="match--identifier">1</text><rect x="24" y="3" width="183" height="49" rx="3" ry="3" class="match--wrapper-background "></rect><rect x="26" y="5" width="179" height="45" rx="3" ry="3" class="match--base-background"></rect><rect x="170" y="5" width="35" height="45" rx="3" ry="3" class="match--scores-background"></rect><rect x="170" y="5" width="35" height="22" rx="3" ry="3" class="match--winner-background"></rect><rect x="170" y="22" width="35" height="5" class="match--winner-background"></rect><text x="190" y="20" width="21" height="12" text-anchor="middle" class="match--player-score">2</text><text x="190" y="43" width="21" height="12" text-anchor="middle" class="match--player-score">0</text><g class="match--player" data-participant-id="42904327"><title>Dark_Crono</title><defs><clipPath id="clipPath8634193"><rect x="29" y="5" width="143" height="22"></rect></clipPath></defs><rect x="29" y="5" width="147" height="22" class="match--player-background"></rect><text clip-path="url(#clipPath8634193)" x="34" y="20" width="147" height="12" class="match--player-name ">Dark_Crono</text></g><g class="match--player" data-participant-id="42904332"><title>Kaelth</title><defs><clipPath id="clipPath3094307"><rect x="29" y="28" width="143" height="22"></rect></clipPath></defs><rect x="29" y="28" width="147" height="22" class="match--player-background"></rect><text clip-path="url(#clipPath3094307)" x="34" y="43" width="147" height="12" class="match--player-name ">Kaelth</text></g><line x1="26" y1="27.5" x2="205" y2="27.5" class="match--player-divider"></line></svg><g class="rounds" transform="translate(0,278)"><svg class="round" x="0"><g class="round-label" data-toggle="" data-href="/es/tournaments/2712590/rounds/new_or_edit?number=-1&amp;title=Perdedores+de+la+ronda+1"><rect width="222" height="25"></rect><text x="111.5" y="17" width="222" height="15" text-anchor="middle">Perdedores de la ronda 1</text></g></svg><svg class="round" x="223"><g class="round-label" data-toggle="" data-href="/es/tournaments/2712590/rounds/new_or_edit?number=-2&amp;title=Perdedores+de+la+ronda+2"><rect width="222" height="25"></rect><text x="111.5" y="17" width="222" height="15" text-anchor="middle">Perdedores de la ronda 2</text></g></svg><svg class="round" x="446"><g class="round-label" data-toggle="" data-href="/es/tournaments/2712590/rounds/new_or_edit?number=-3&amp;title=Perdedores+de+la+ronda+3"><rect width="222" height="25"></rect><text x="111.5" y="17" width="222" height="15" text-anchor="middle">Perdedores de la ronda 3</text></g></svg><svg class="round" x="669"><g class="round-label" data-toggle="" data-href="/es/tournaments/2712590/rounds/new_or_edit?number=-4&amp;title=Perdedores+de+la+ronda+4"><rect width="222" height="25"></rect><text x="111.5" y="17" width="222" height="15" text-anchor="middle">Perdedores de la ronda 4</text></g></svg></g></g></svg>
  </svg>
</svg>
